PathFileType	4	(X/Y/Z)	C:\Users\italobelli\Desktop\GitHub\PTbot_officialCBL\Personal_Results\FLX23_noisy1.trc
DataRate	CameraRate	NumFrames	NumMarkers	Units	OrigDataRate	OrigDataStartFrame	OrigNumFrames
106.533333	106.533333	38	9	m	106.533333	601	800
Frame#	Time		gu		centelbow		EpL		centpxt8		centijc7		ij		ts		aa		ai
			X1	Y1	Z1	X2	Y2	Z2	X3	Y3	Z3	X4	Y4	Z4	X5	Y5	Z5	X6	Y6	Z6	X7	Y7	Z7	X8	Y8	Z8	X9	Y9	Z9

601	5.632	-0.073165	0.0008318	0.16623	-0.047064	-0.22022	0.22175	-0.025083	-0.20939	0.24287	-0.046816	-0.15316	-0.008669	-0.046816	0.031938	-0.008669	0	0	0	-0.13782	0.029399	0.05293	-0.10114	0.031955	0.16664	-0.1512	-0.082523	0.065727
602	5.6414	-0.073129	0.00035732	0.16631	-0.049433	-0.22102	0.22117	-0.02737	-0.21046	0.24236	-0.046816	-0.15316	-0.008669	-0.046816	0.031938	-0.008669	0	0	0	-0.13774	0.029373	0.053041	-0.10112	0.03162	0.16678	-0.15132	-0.082544	0.065604
603	5.6508	-0.073093	-0.00011326	0.16639	-0.051805	-0.2218	0.22058	-0.029663	-0.21152	0.24185	-0.046816	-0.15316	-0.008669	-0.046816	0.031938	-0.008669	0	0	0	-0.13766	0.029346	0.053152	-0.1011	0.031287	0.16692	-0.15143	-0.082566	0.065484
604	5.6602	-0.073057	-0.00057953	0.16647	-0.054176	-0.22257	0.22	-0.031959	-0.21256	0.24135	-0.046816	-0.15316	-0.008669	-0.046816	0.031938	-0.008669	0	0	0	-0.13758	0.029318	0.053263	-0.10108	0.030958	0.16706	-0.15155	-0.082587	0.065366
605	5.6696	-0.073022	-0.0010411	0.16655	-0.056545	-0.22333	0.21942	-0.034257	-0.21358	0.24084	-0.046816	-0.15316	-0.008669	-0.046816	0.031938	-0.008669	0	0	0	-0.1375	0.029289	0.053375	-0.10106	0.030633	0.1672	-0.15166	-0.08261	0.065251
606	5.679	-0.072986	-0.0014975	0.16662	-0.058909	-0.22408	0.21884	-0.036555	-0.21458	0.24033	-0.046816	-0.15316	-0.008669	-0.046816	0.031938	-0.008669	0	0	0	-0.13743	0.029259	0.053487	-0.10104	0.030312	0.16734	-0.15177	-0.082632	0.065139
607	5.6884	-0.07295	-0.0019485	0.1667	-0.061267	-0.22481	0.21827	-0.03885	-0.21557	0.23982	-0.046816	-0.15316	-0.008669	-0.046816	0.031938	-0.008669	0	0	0	-0.13735	0.029228	0.053598	-0.10103	0.029995	0.16748	-0.15189	-0.082654	0.06503
608	5.6977	-0.072915	-0.0023935	0.16677	-0.063616	-0.22554	0.21769	-0.041141	-0.21654	0.23932	-0.046816	-0.15316	-0.008669	-0.046816	0.031938	-0.008669	0	0	0	-0.13728	0.029196	0.05371	-0.10101	0.029683	0.16761	-0.152	-0.082677	0.064923
609	5.7071	-0.072879	-0.0028322	0.16684	-0.065954	-0.22625	0.21712	-0.043424	-0.2175	0.23882	-0.046816	-0.15316	-0.008669	-0.046816	0.031938	-0.008669	0	0	0	-0.1372	0.029164	0.053821	-0.10099	0.029375	0.16774	-0.15211	-0.0827	0.064819
610	5.7165	-0.072843	-0.0032641	0.16691	-0.068278	-0.22694	0.21656	-0.045698	-0.21844	0.23832	-0.046816	-0.15316	-0.008669	-0.046816	0.031938	-0.008669	0	0	0	-0.13713	0.029132	0.053932	-0.10097	0.029073	0.16787	-0.15222	-0.082722	0.064718
611	5.7259	-0.072807	-0.003689	0.16698	-0.070587	-0.22763	0.21599	-0.047961	-0.21936	0.23782	-0.046816	-0.15316	-0.008669	-0.046816	0.031938	-0.008669	0	0	0	-0.13706	0.029099	0.054041	-0.10096	0.028777	0.168	-0.15233	-0.082745	0.064619
612	5.7353	-0.072772	-0.0041063	0.16705	-0.072878	-0.2283	0.21543	-0.05021	-0.22026	0.23732	-0.046816	-0.15316	-0.008669	-0.046816	0.031938	-0.008669	0	0	0	-0.13699	0.029066	0.054151	-0.10094	0.028486	0.16812	-0.15243	-0.082767	0.064523
613	5.7447	-0.072736	-0.0045157	0.16712	-0.075149	-0.22896	0.21488	-0.052443	-0.22115	0.23683	-0.046816	-0.15316	-0.008669	-0.046816	0.031938	-0.008669	0	0	0	-0.13692	0.029033	0.054258	-0.10092	0.028201	0.16824	-0.15254	-0.082789	0.06443
614	5.7541	-0.0727	-0.0049167	0.16719	-0.077398	-0.22961	0.21433	-0.054659	-0.22202	0.23634	-0.046816	-0.15316	-0.008669	-0.046816	0.031938	-0.008669	0	0	0	-0.13685	0.029	0.054365	-0.10091	0.027923	0.16836	-0.15264	-0.082811	0.064339
615	5.7635	-0.072664	-0.0053091	0.16726	-0.079623	-0.23025	0.21379	-0.056854	-0.22287	0.23586	-0.046816	-0.15316	-0.008669	-0.046816	0.031938	-0.008669	0	0	0	-0.13678	0.028968	0.054471	-0.10089	0.027651	0.16848	-0.15274	-0.082832	0.064251
616	5.7728	-0.072628	-0.0056923	0.16732	-0.081821	-0.23087	0.21325	-0.059027	-0.22371	0.23538	-0.046816	-0.15316	-0.008669	-0.046816	0.031938	-0.008669	0	0	0	-0.13671	0.028935	0.054575	-0.10088	0.027386	0.16859	-0.15284	-0.082853	0.064165
617	5.7822	-0.072592	-0.0060659	0.16739	-0.08399	-0.23148	0.21271	-0.061176	-0.22453	0.23491	-0.046816	-0.15316	-0.008669	-0.046816	0.031938	-0.008669	0	0	0	-0.13664	0.028903	0.054677	-0.10087	0.027129	0.16871	-0.15294	-0.082874	0.064082
618	5.7916	-0.072556	-0.0064296	0.16746	-0.086129	-0.23208	0.21219	-0.063298	-0.22533	0.23444	-0.046816	-0.15316	-0.008669	-0.046816	0.031938	-0.008669	0	0	0	-0.13657	0.028872	0.054777	-0.10085	0.026879	0.16881	-0.15303	-0.082894	0.064001
619	5.801	-0.07252	-0.006783	0.16752	-0.088234	-0.23267	0.21167	-0.065392	-0.22611	0.23397	-0.046816	-0.15316	-0.008669	-0.046816	0.031938	-0.008669	0	0	0	-0.13651	0.028842	0.054876	-0.10084	0.026637	0.16892	-0.15312	-0.082914	0.063923
620	5.8104	-0.072484	-0.0071256	0.16759	-0.090304	-0.23324	0.21115	-0.067454	-0.22688	0.23351	-0.046816	-0.15316	-0.008669	-0.046816	0.031938	-0.008669	0	0	0	-0.13644	0.028812	0.054972	-0.10083	0.026404	0.16902	-0.15321	-0.082932	0.063848
621	5.8198	-0.072448	-0.0074571	0.16765	-0.092337	-0.2338	0.21065	-0.069483	-0.22763	0.23306	-0.046816	-0.15316	-0.008669	-0.046816	0.031938	-0.008669	0	0	0	-0.13637	0.028784	0.055066	-0.10081	0.026178	0.16912	-0.1533	-0.082951	0.063775
622	5.8292	-0.072411	-0.007777	0.16771	-0.094329	-0.23435	0.21015	-0.071477	-0.22836	0.23261	-0.046816	-0.15316	-0.008669	-0.046816	0.031938	-0.008669	0	0	0	-0.1363	0.028756	0.055157	-0.1008	0.025962	0.16922	-0.15338	-0.082968	0.063704
623	5.8385	-0.072375	-0.008085	0.16778	-0.09628	-0.23488	0.20966	-0.073434	-0.22907	0.23217	-0.046816	-0.15316	-0.008669	-0.046816	0.031938	-0.008669	0	0	0	-0.13623	0.02873	0.055246	-0.10079	0.025755	0.16931	-0.15346	-0.082985	0.063636
624	5.8479	-0.072338	-0.0083807	0.16784	-0.098187	-0.2354	0.20917	-0.075351	-0.22977	0.23174	-0.046816	-0.15316	-0.008669	-0.046816	0.031938	-0.008669	0	0	0	-0.13617	0.028705	0.055332	-0.10078	0.025557	0.1694	-0.15354	-0.083	0.063571
625	5.8573	-0.072302	-0.0086635	0.16791	-0.10005	-0.23591	0.2087	-0.077226	-0.23045	0.23132	-0.046816	-0.15316	-0.008669	-0.046816	0.031938	-0.008669	0	0	0	-0.1361	0.028681	0.055415	-0.10077	0.025368	0.16949	-0.15361	-0.083015	0.063508
626	5.8667	-0.072265	-0.0089333	0.16797	-0.10186	-0.23641	0.20823	-0.079056	-0.23111	0.2309	-0.046816	-0.15316	-0.008669	-0.046816	0.031938	-0.008669	0	0	0	-0.13603	0.02866	0.055495	-0.10076	0.02519	0.16957	-0.15368	-0.083029	0.063447
627	5.8761	-0.072228	-0.0091894	0.16803	-0.10362	-0.23689	0.20778	-0.080841	-0.23175	0.23049	-0.046816	-0.15316	-0.008669	-0.046816	0.031938	-0.008669	0	0	0	-0.13596	0.02864	0.055571	-0.10075	0.025022	0.16965	-0.15375	-0.083041	0.063389
628	5.8855	-0.072191	-0.0094316	0.1681	-0.10533	-0.23736	0.20733	-0.082577	-0.23237	0.23009	-0.046816	-0.15316	-0.008669	-0.046816	0.031938	-0.008669	0	0	0	-0.13589	0.028621	0.055645	-0.10074	0.024864	0.16972	-0.15381	-0.083053	0.063333
629	5.8949	-0.072153	-0.0096594	0.16816	-0.10698	-0.23782	0.20689	-0.084263	-0.23298	0.2297	-0.046816	-0.15316	-0.008669	-0.046816	0.031938	-0.008669	0	0	0	-0.13582	0.028605	0.055714	-0.10073	0.024718	0.1698	-0.15387	-0.083063	0.06328
630	5.9043	-0.072116	-0.0098725	0.16822	-0.10858	-0.23826	0.20647	-0.085896	-0.23356	0.22932	-0.046816	-0.15316	-0.008669	-0.046816	0.031938	-0.008669	0	0	0	-0.13575	0.028591	0.05578	-0.10072	0.024582	0.16986	-0.15393	-0.083072	0.063229
631	5.9136	-0.072078	-0.01007	0.16829	-0.11011	-0.23869	0.20605	-0.087474	-0.23413	0.22894	-0.046816	-0.15316	-0.008669	-0.046816	0.031938	-0.008669	0	0	0	-0.13568	0.028579	0.055842	-0.10071	0.024458	0.16993	-0.15398	-0.08308	0.06318
632	5.923	-0.07204	-0.010253	0.16835	-0.11159	-0.23911	0.20565	-0.088995	-0.23468	0.22858	-0.046816	-0.15316	-0.008669	-0.046816	0.031938	-0.008669	0	0	0	-0.13561	0.02857	0.055899	-0.1007	0.024346	0.16999	-0.15402	-0.083086	0.063134
633	5.9324	-0.072003	-0.010419	0.16842	-0.113	-0.23951	0.20525	-0.090457	-0.23521	0.22823	-0.046816	-0.15316	-0.008669	-0.046816	0.031938	-0.008669	0	0	0	-0.13553	0.028563	0.055953	-0.10069	0.024246	0.17004	-0.15406	-0.083091	0.06309
634	5.9418	-0.071964	-0.010569	0.16848	-0.11434	-0.2399	0.20487	-0.091857	-0.23573	0.22789	-0.046816	-0.15316	-0.008669	-0.046816	0.031938	-0.008669	0	0	0	-0.13546	0.028558	0.056002	-0.10068	0.024158	0.1701	-0.1541	-0.083095	0.063048
635	5.9512	-0.071926	-0.010702	0.16855	-0.11561	-0.24028	0.2045	-0.093194	-0.23622	0.22756	-0.046816	-0.15316	-0.008669	-0.046816	0.031938	-0.008669	0	0	0	-0.13538	0.028557	0.056046	-0.10068	0.024083	0.17014	-0.15413	-0.083097	0.063009
636	5.9606	-0.071887	-0.010818	0.16861	-0.11682	-0.24065	0.20414	-0.094464	-0.23669	0.22724	-0.046816	-0.15316	-0.008669	-0.046816	0.031938	-0.008669	0	0	0	-0.13531	0.028558	0.056086	-0.10067	0.02402	0.17019	-0.15416	-0.083097	0.062972
637	5.97	-0.071849	-0.010917	0.16868	-0.11795	-0.241	0.20379	-0.095667	-0.23715	0.22693	-0.046816	-0.15316	-0.008669	-0.046816	0.031938	-0.008669	0	0	0	-0.13523	0.028562	0.056121	-0.10066	0.023971	0.17023	-0.15418	-0.083095	0.062937
638	5.9793	-0.07181	-0.010997	0.16875	-0.11901	-0.24133	0.20346	-0.0968	-0.23759	0.22664	-0.046816	-0.15316	-0.008669	-0.046816	0.031938	-0.008669	0	0	0	-0.13515	0.028569	0.05615	-0.10065	0.023936	0.17026	-0.15419	-0.083092	0.062905
